<?xml version="1.0"?><svg version="1.2" baseProfile="tiny-ps" viewBox="0 0 100 100" xmlns="http://www.w3.org/2000/svg" xmlns:xlink="http://www.w3.org/1999/xlink"><title>replicate.info</title><g><g fill="#ffba1c" transform="matrix(.1 0 0 -.1 0 100)"><path d="M423 989c-28-5-76-18-107-29l-56-21-59-45-60-45-36-48c-19-27-46-73-60-102l-24-54-11-69-11-70 7-55c15-122 66-223 158-309l53-50 49-25c27-13 79-34 115-45l67-19 6 36c3 20 6 78 6 129v92h80v-99c0-54 3-112 6-128l6-30 66 19c37 11 89 32 116 45l49 25 53 50c67 63 110 130 136 211l20 62v180l-21 59c-71 198-228 320-436 339l-60 5-52-9z"/></g><g fill="#ff9213" transform="matrix(.1 0 0 -.1 0 100)"><path d="M423 989c-28-5-76-18-107-29l-56-21-59-45-60-45-36-48c-19-27-46-73-60-102l-24-54-11-69-11-70 7-55c15-122 66-223 158-309l53-50 49-25c27-13 79-34 115-45l67-19 6 36c3 20 6 78 6 129v92h80v-99c0-54 3-112 6-128l6-30 66 19c37 11 89 32 116 45l49 25 53 50c67 63 110 130 136 211l20 62v180l-21 59c-71 198-228 320-436 339l-60 5-52-9zm72-212 6-37 46-68 46-67-24 20-24 20-118-5-119-5-13-25c-8-14-14-20-15-15 0 6 13 33 29 60l29 51 73 69 74 69 2-14c1-8 4-32 8-53zm180-122c25-38 45-73 45-79 0-5-10 6-23 25l-23 34-28 3-29 4-8-14-9-13v26c0 27 20 93 26 87 2-2 24-35 49-73z"/></g><g fill="#ff6507" transform="matrix(.1 0 0 -.1 0 100)"><path d="M423 989c-28-5-76-18-107-29l-56-21-59-45-60-45-36-48c-19-27-46-73-60-102l-24-54-11-69-11-70 7-55c15-122 66-223 158-309l53-50 49-25c27-13 79-34 115-45l67-19 6 36c3 20 6 78 6 129v92h80v-99c0-54 3-112 6-128l6-30 66 19c37 11 89 32 116 45l49 25 53 50c67 63 110 130 136 211l20 62v180l-21 59c-71 198-228 320-436 339l-60 5-52-9zm96-269c13-25 33-57 46-72l23-27 11 42c6 23 14 48 19 54l8 13 52-78 52-78 5-44 6-45-10-30-9-30-1 23-1 22H611l-4-22-4-23-2 33-1 34-34 34-34 34h-64l-34-34-34-34-1-29-2-28-4 23-5 24-65-4-65-3 5 54 6 53 27 55 28 54 80 77 81 77 5-40c3-23 16-61 29-85zM277 438l-5-13-1 19c-1 11 2 17 5 13 3-3 4-12 1-19z"/></g><g fill="#a95d20" transform="matrix(.1 0 0 -.1 0 100)"><path d="M423 989c-28-5-76-18-107-29l-56-21-59-45-60-45-36-48c-19-27-46-73-60-102l-24-54-11-69-11-70 7-55c15-122 66-223 158-309l53-50 49-25c27-13 79-34 115-45l67-19 6 36c3 20 6 78 6 129v92h80v-99c0-54 3-112 6-128l6-30 66 19c37 11 89 32 116 45l49 25 53 50c67 63 110 130 136 211l20 62v180l-21 59c-71 198-228 320-436 339l-60 5-52-9zm96-269c13-25 33-57 46-72l23-27 11 42c6 23 14 48 19 54l8 13 52-78 51-77 7-42 6-42-12-49-12-50-35-41-35-42-39-19c-21-11-45-20-53-20h-15l9 28c4 15 18 49 30 76l22 49-5 41-6 41-31 28-30 27h-62l-34-34-34-34v-77l21-45c12-25 25-57 29-72l9-28h-15c-8 0-32 9-53 20l-39 19-35 41-35 41-12 45-13 44 6 52 6 52 28 53 27 54 80 77 81 77 5-40c3-23 16-61 29-85z"/></g><g fill="#4b4148" transform="matrix(.1 0 0 -.1 0 100)"><path d="M423 989c-28-5-76-18-107-29l-56-21-59-45-60-45-36-48c-19-27-46-73-60-102l-24-54-11-69-11-70 7-55c15-122 66-223 158-309l53-50 49-25c27-13 79-34 115-45l67-19 6 36c3 20 6 77 6 128v91l-34 12c-19 6-52 24-74 40l-39 28-27 53-26 53v121l25 54c14 29 39 71 56 93 30 38 134 128 147 128 4 0 8-17 8-38l2-38 20-40c12-21 32-52 46-69l25-30 1 20c1 11 10 38 20 60l18 40 7-20c5-11 23-40 40-65 18-25 40-59 49-77l16-32V444l-26-53-27-53-39-28c-22-16-55-34-74-40l-34-12v-98c0-53 3-111 6-127l6-30 66 19c37 11 89 32 116 45l49 25 53 50c67 63 110 130 136 211l20 62v180l-21 59c-71 198-228 320-436 339l-60 5-52-9zm20-454-22-16-12-37-11-37 17-45c10-25 25-66 34-92l16-48h70l16 48c9 26 24 66 33 90l16 43-10 39-11 39-22 16-21 15h-72l-21-15z"/></g><g fill="#141b38" transform="matrix(.1 0 0 -.1 0 100)"><path d="M455 993c-59-8-141-35-197-65l-57-30-55-57-54-57-30-60c-16-32-35-84-42-114L7 555V434l18-59c9-33 28-82 42-109l26-50 61-62 61-61 65-31c36-16 83-34 105-37 22-4 45-12 51-16l11-9 6 67c4 38 7 95 7 129v61l-41 12-42 13-48 48-48 48-17 58-17 59 11 54 12 54 32 55 33 54 74 69c41 38 78 69 83 69h8v-81l25-47c13-26 33-58 44-72l21-25v22c0 12 8 38 17 58 17 35 33 46 33 23 0-7 22-45 49-85l49-72 7-40 7-40-17-57-16-56-47-47-47-46-42-14-43-14v-67c0-37 3-95 6-129l7-61 11 9c6 4 29 12 51 16 22 3 69 21 105 37l65 31 61 61 61 61 31 65 32 65 16 81 15 81-15 74-16 74-34 70-35 70-51 52-52 51-57 31c-84 44-215 74-286 64zm-6-456c-25-19-39-52-39-92v-36l17-32c9-18 22-50 28-72l12-40 32-3 31-3 6 18c3 10 17 43 30 74l24 57v35c0 20-5 47-11 60l-11 25-25 11c-31 14-74 14-94-2z"/></g></g></svg>
